<?xml version="1.0" encoding="UTF-8" standalone="no"?>
<!-- Created with Inkscape (http://www.inkscape.org/) -->

<svg
   xmlns:dc="http://purl.org/dc/elements/1.1/"
   xmlns:cc="http://creativecommons.org/ns#"
   xmlns:rdf="http://www.w3.org/1999/02/22-rdf-syntax-ns#"
   xmlns:svg="http://www.w3.org/2000/svg"
   xmlns="http://www.w3.org/2000/svg"
   xmlns:sodipodi="http://sodipodi.sourceforge.net/DTD/sodipodi-0.dtd"
   xmlns:inkscape="http://www.inkscape.org/namespaces/inkscape"
   width="678.70905"
   height="136.78911"
   id="svg2"
   version="1.1"
   inkscape:version="0.47 r22583"
   sodipodi:docname="mountain.svg">
  <defs
     id="defs4">
    <inkscape:perspective
       sodipodi:type="inkscape:persp3d"
       inkscape:vp_x="0 : 526.18109 : 1"
       inkscape:vp_y="0 : 1000 : 0"
       inkscape:vp_z="744.09448 : 526.18109 : 1"
       inkscape:persp3d-origin="372.04724 : 350.78739 : 1"
       id="perspective10" />
  </defs>
  <sodipodi:namedview
     id="base"
     pagecolor="#ffffff"
     bordercolor="#666666"
     borderopacity="1.0"
     inkscape:pageopacity="0.0"
     inkscape:pageshadow="2"
     inkscape:zoom="1.0348007"
     inkscape:cx="323.40942"
     inkscape:cy="68.528144"
     inkscape:document-units="px"
     inkscape:current-layer="layer1"
     showgrid="false"
     inkscape:window-width="1440"
     inkscape:window-height="852"
     inkscape:window-x="-4"
     inkscape:window-y="-3"
     inkscape:window-maximized="1" />
  <metadata
     id="metadata7">
    <rdf:RDF>
      <cc:Work
         rdf:about="">
        <dc:format>image/svg+xml</dc:format>
        <dc:type
           rdf:resource="http://purl.org/dc/dcmitype/StillImage" />
        <dc:title></dc:title>
      </cc:Work>
    </rdf:RDF>
  </metadata>
  <g
     inkscape:label="Layer 1"
     inkscape:groupmode="layer"
     id="layer1"
     transform="translate(-32.213446,-93.939431)">
    <g
       id="g3661">
      <path
         sodipodi:nodetypes="ccssssssscc"
         id="path2818"
         d="M 32.713446,229.96136 C 153.16993,195.81895 231.02286,171.03385 330.17757,98.346795 c 4.325,-0.729713 8.08404,0.415558 11.6875,-0.01396 3.60346,-0.429521 7.50121,-3.333559 10.48411,-3.524556 2.98291,-0.190998 5.32089,2.600961 7.78422,2.58682 2.46333,-0.01414 5.7718,-2.744409 7.81654,-2.643361 2.04475,0.101049 2.7358,1.054025 4.46294,1.208595 1.72714,0.15457 4.58033,-1.658904 6.09084,-1.51248 1.51052,0.146425 2.03825,3.242444 3.43313,3.319055 1.39488,0.07661 2.39729,-0.886795 3.77751,-0.941665 141.86669,87.430297 198.67259,110.579967 324.70812,133.403297"
         style="fill:#153708;fill-opacity:1;stroke:#000000;stroke-width:1px;stroke-linecap:butt;stroke-linejoin:miter;stroke-opacity:1" />
      <path
         sodipodi:nodetypes="cccccccssssssscccssssssssssccccccsssccc"
         id="path3602"
         d="m 356.924,151.029 c 0,0 -7.0377,-9.22603 -12.04532,-5.64916 -1.43075,-6.43837 -6.79578,-9.0378 -6.79578,-9.0378 -2.14612,-5.723 -18.24177,12.78109 -18.24177,12.78109 l 3.00135,-6.38502 c 2.14612,-0.71537 1.5706,-6.38502 1.5706,-6.38502 l -7.76759,6.22897 c -1.51798,0.27829 -4.35436,-2.8019 -13.84826,-4.36467 -10.516,-1.73099 -24.41792,12.94537 -24.53429,12.86186 -0.11636,-0.0835 3.01152,-5.92457 3.89064,-7.73407 0.87912,-1.80949 1.42131,-3.46707 1.20487,-3.68351 -0.21644,-0.21644 -0.60801,-2.8001 -5.67907,-1.8069 -5.07105,0.9932 -13.31403,5.02624 -13.50882,5.02776 -0.19478,0.001 1.79038,-2.23527 5.723,-4.53347 14.01348,-8.1894 36.48301,-22.43508 53.01529,-34.20903 l 7.59259,-4.892539 6.19258,0 c 4.9548,0 7.07232,-0.357473 10.59394,-1.788435 5.29506,-2.151577 5.29775,-2.151686 9.31466,-0.374815 3.28404,1.452688 4.89087,1.335901 9.19432,-0.668265 1.23507,-0.575186 2.63418,-0.647664 4.27831,-0.22163 1.48158,0.383918 3.65427,0.355898 5.52067,-0.0712 2.78327,-0.636902 3.1828,-0.554083 4.17742,0.865951 0.8431,1.203689 1.71432,1.530722 3.73239,1.401049 2.28759,-0.146993 5.67914,1.665134 25.88221,13.829024 24.15323,14.54222 41.84807,24.79185 57.35936,33.22505 4.98938,2.71264 11.13604,5.01376 11.0362,5.1136 -0.0998,0.0998 -11.92598,1.3951 -24.09446,-0.18187 l -18.90532,-7.51713 -5.36531,4.14167 c -0.98364,1.09755 -6.58903,-6.6207 -6.93214,2.16343 l 1.29466,4.46013 -16.23114,-6.42752 c -9.5173,-1.96131 -18.73803,-0.4964 -19.179,-0.24202 -0.44096,0.25437 -2.17885,-0.78319 -4.73631,1.19169 -2.55747,1.97489 -5.68722,6.67871 -6.08068,6.95554 -0.39345,0.27684 -6.51133,-4.82874 -15.97987,-6.57656 l 0,0 -4.64993,2.50382 z"
         style="color:#000000;fill:#f9f9ff;fill-opacity:1;fill-rule:nonzero;stroke:none;stroke-width:0.49999997;marker:none;visibility:visible;display:inline;overflow:visible;enable-background:accumulate" />
      <path
         sodipodi:nodetypes="cc"
         id="path3604"
         d="m 302.60317,133.82207 c 10.07568,-5.30322 20.37667,-9.93047 28.61496,-20.74585"
         style="fill:none;stroke:#7f7f7f;stroke-width:1px;stroke-linecap:butt;stroke-linejoin:miter;stroke-opacity:1" />
      <path
         sodipodi:nodetypes="cc"
         id="path3606"
         d="m 371.27907,138.11431 c -1.75599,-4.44392 -4.05374,-8.34608 -2.14613,-16.4536"
         style="fill:none;stroke:#7f7f7f;stroke-width:1px;stroke-linecap:butt;stroke-linejoin:miter;stroke-opacity:1" />
      <path
         sodipodi:nodetypes="cc"
         id="path3608"
         d="m 383.44042,116.65309 c 21.17595,8.18003 24.36893,21.21092 36.48407,20.74585"
         style="fill:none;stroke:#7f7f7f;stroke-width:1px;stroke-linecap:butt;stroke-linejoin:miter;stroke-opacity:1" />
      <path
         sodipodi:nodetypes="cc"
         id="path3610"
         d="m 217.47367,192.48273 c 17.90903,-18.00713 41.80203,-20.01206 49.3608,-32.9072"
         style="fill:none;stroke:#1c1400;stroke-width:1px;stroke-linecap:butt;stroke-linejoin:miter;stroke-opacity:1" />
      <path
         sodipodi:nodetypes="cc"
         id="path3612"
         d="m 288.29569,193.1981 c 3.11537,1.98477 20.25341,-18.20041 19.3151,-22.89196"
         style="fill:none;stroke:#1c1400;stroke-width:1px;stroke-linecap:butt;stroke-linejoin:miter;stroke-opacity:1" />
      <path
         sodipodi:nodetypes="cc"
         id="path3614"
         d="m 378.4328,171.02151 c 7.58311,9.70527 9.29251,17.94212 9.29987,25.75346"
         style="fill:none;stroke:#1c1400;stroke-width:1px;stroke-linecap:butt;stroke-linejoin:miter;stroke-opacity:1" />
      <path
         sodipodi:nodetypes="cc"
         id="path3616"
         d="m 462.84693,173.16763 c 4.29224,-0.71537 32.90719,24.32272 45.06855,24.32272"
         style="fill:none;stroke:#1c1400;stroke-width:1px;stroke-linecap:butt;stroke-linejoin:miter;stroke-opacity:1" />
      <path
         sodipodi:nodetypes="cc"
         id="path3659"
         d="m 141.08997,213.55335 c 14.70818,0.6108 22.83612,-17.14886 39.62115,-17.39466"
         style="fill:none;stroke:#1c1400;stroke-width:1px;stroke-linecap:butt;stroke-linejoin:miter;stroke-opacity:1" />
    </g>
  </g>
</svg>
